<svg width="56" height="56" viewBox="0 0 56 56" fill="none" xmlns="http://www.w3.org/2000/svg">
    <path fill-rule="evenodd" clip-rule="evenodd"
        d="M45.9158 28.9076H46.2464C46.4642 28.9076 46.6593 28.8779 46.6593 28.6225C46.6593 28.3962 46.4433 28.3607 46.2495 28.3607H45.9158V28.9076ZM45.5404 28.0897H46.2894C46.7698 28.0897 47.0335 28.2485 47.0335 28.6511C47.0335 28.9769 46.8354 29.1352 46.5066 29.1637L47.0452 29.9979H46.6636L46.1435 29.1765H45.9159V29.9979H45.5404V28.0897ZM47.5688 29.0503C47.5688 28.2637 46.9676 27.693 46.2253 27.693C45.4819 27.693 44.8825 28.2637 44.8825 29.0503C44.8825 29.8403 45.4819 30.4104 46.2253 30.4104C46.9676 30.4104 47.5688 29.8403 47.5688 29.0503ZM44.4482 29.0496C44.4482 28.1228 45.2457 27.3677 46.2253 27.3677C47.2044 27.3677 48 28.1228 48 29.0496C48 29.9798 47.2044 30.7355 46.2253 30.7355C45.2457 30.7355 44.4482 29.9798 44.4482 29.0496Z"
        fill="white" />
    <path fill-rule="evenodd" clip-rule="evenodd"
        d="M9.20575 12.5552C6.55021 12.5552 4.30076 14.1923 3.51189 16.4588C3.49287 16.5089 3.4757 16.5618 3.45975 16.6118L3.32909 17.0994L0 30.7738H8.38682C10.8927 30.7738 13.0262 29.2688 13.8378 27.1587L14.1543 25.8561L17.3926 12.5552H9.20575Z"
        fill="#034EA2" />
    <path fill-rule="evenodd" clip-rule="evenodd"
        d="M25.0262 8C22.2835 8 19.9709 9.74763 19.2575 12.1317C19.2035 12.3103 19.1599 12.4918 19.1256 12.6768L13.6102 35.3314H21.7971C24.6017 35.3314 26.956 33.5029 27.6105 31.0345V31.0357H27.6142L33.2216 8H25.0262Z"
        fill="#F37021" />
    <path fill-rule="evenodd" clip-rule="evenodd"
        d="M38.642 12.5552C36.0803 12.5552 33.8952 14.0788 33.0364 16.2232C32.9929 16.332 32.8401 16.7852 32.8401 16.7852L29.4356 30.7738H37.6237C40.4375 30.7738 42.7967 28.9366 43.4439 26.4571L43.4433 26.4583H43.4439L46.827 12.5552H38.642Z"
        fill="#51B848" />
    <path d="M4.10128 41.7037V43.7991H6.48204V44.7141H4.10128V47.8917H3.00018V40.7691H6.7102V41.7037H4.10128Z"
        fill="white" />
    <path
        d="M12.4863 42.8842C12.4863 43.5401 12.2483 44.0647 11.7721 44.4583C11.2761 44.8715 10.585 45.0781 9.69886 45.0781C9.43433 45.0781 9.18303 45.0584 8.94495 45.019V47.8917H7.84385V41.0347C8.38613 40.7855 9.04746 40.6608 9.82782 40.6608C10.6743 40.6608 11.3323 40.8609 11.8019 41.261C12.2582 41.6545 12.4863 42.1956 12.4863 42.8842ZM11.3852 42.8744C11.3852 41.9693 10.8694 41.5167 9.83774 41.5167C9.49385 41.5167 9.19625 41.5659 8.94495 41.6643V44.1631C9.13012 44.1959 9.3682 44.2123 9.65918 44.2123C10.2147 44.2123 10.6412 44.091 10.9388 43.8483C11.2364 43.6188 11.3852 43.2941 11.3852 42.8744Z"
        fill="white" />
    <path d="M15.9399 41.7037V47.8917H14.819V41.7037H13.1624V40.7691H17.5866V41.7037H15.9399Z" fill="white" />
    <path
        d="M25.0615 47.8917L24.0497 45.6388C23.8182 45.1272 23.4512 44.8715 22.9486 44.8715H22.3137V47.8917H21.2126V41.0445C21.7946 40.7887 22.4757 40.6608 23.2561 40.6608C24.1026 40.6608 24.754 40.8478 25.2103 41.2216C25.6534 41.5889 25.8749 42.0939 25.8749 42.7366C25.8749 43.7139 25.3624 44.314 24.3374 44.537V44.5566C24.668 44.7272 24.9491 45.0617 25.1805 45.5601L26.2519 47.8917H25.0615ZM24.7738 42.7858C24.7738 41.9398 24.2745 41.5167 23.2759 41.5167C22.8857 41.5167 22.565 41.5659 22.3137 41.6643V44.0647H23.1569C24.2348 44.0647 24.7738 43.6384 24.7738 42.7858Z"
        fill="white" />
    <path
        d="M31.4379 44.8124C31.4379 44.9895 31.4346 45.124 31.428 45.2158L27.8767 45.7077C27.9891 46.6652 28.5347 47.144 29.5135 47.144C30.0954 47.144 30.5881 47.0358 30.9915 46.8194L31.309 47.6261C30.8262 47.8753 30.2046 47.9999 29.444 47.9999C28.6108 47.9999 27.9627 47.7507 27.4998 47.2522C27.0434 46.7669 26.8153 46.0946 26.8153 45.2355C26.8153 44.4156 27.0302 43.7532 27.4601 43.2482C27.8966 42.7366 28.4851 42.4808 29.2258 42.4808C29.9136 42.4808 30.4559 42.6907 30.8527 43.1105C31.2428 43.5302 31.4379 44.0975 31.4379 44.8124ZM30.3964 44.6452C30.3897 43.727 29.9929 43.2679 29.206 43.2679C28.7827 43.2679 28.4488 43.4187 28.2041 43.7204C27.9462 44.0287 27.8139 44.455 27.8073 44.9993L30.3964 44.6452Z"
        fill="white" />
    <path
        d="M35.0064 47.8425C34.8345 47.9212 34.6096 47.9606 34.3319 47.9606C33.3531 47.9606 32.8638 47.4424 32.8638 46.4062V43.3958H32.1396V42.5891H32.8638V41.3593L33.9252 41.0347V42.5891H35.0064V43.3958H33.9252V46.3471C33.9252 46.7931 34.1633 47.0161 34.6394 47.0161C34.7783 47.0161 34.9006 46.9932 35.0064 46.9473V47.8425Z"
        fill="white" />
    <path
        d="M40.0686 47.6261C39.599 47.8753 38.9576 47.9999 38.1441 47.9999C36.6032 47.9999 35.8328 47.4457 35.8328 46.3373C35.8328 45.6683 36.1635 45.1895 36.8248 44.901C37.3076 44.6911 38.0449 44.5599 39.0369 44.5075V44.173C39.0369 43.5696 38.66 43.2679 37.9061 43.2679C37.3836 43.2679 36.8909 43.3761 36.428 43.5925L36.1502 42.8547C36.719 42.6055 37.3406 42.4808 38.0152 42.4808C39.3841 42.4808 40.0686 43.081 40.0686 44.2812V47.6261ZM39.0369 45.2256C38.3227 45.265 37.8234 45.3371 37.539 45.4421C37.0827 45.606 36.8545 45.8979 36.8545 46.3176C36.8545 46.921 37.2745 47.2227 38.1144 47.2227C38.531 47.2227 38.8385 47.1768 39.0369 47.085V45.2256Z"
        fill="white" />
    <path
        d="M42.6195 41.015C42.6195 41.1855 42.5567 41.3298 42.431 41.4479C42.3054 41.5659 42.1533 41.625 41.9747 41.625C41.7962 41.625 41.6441 41.5659 41.5184 41.4479C41.3928 41.3298 41.3299 41.1855 41.3299 41.015C41.3299 40.8445 41.3928 40.7002 41.5184 40.5821C41.6441 40.4641 41.7962 40.4051 41.9747 40.4051C42.1533 40.4051 42.3054 40.4641 42.431 40.5821C42.5567 40.7002 42.6195 40.8445 42.6195 41.015ZM41.4291 47.8917V42.5891H42.5203V47.8917H41.4291Z"
        fill="white" />
    <path d="M43.9091 47.8917V40.1689H45.0003V47.8917H43.9091Z" fill="white" />
</svg>