<svg width="183" height="56" viewBox="0 0 183 56" fill="none" xmlns="http://www.w3.org/2000/svg">
<path fill-rule="evenodd" clip-rule="evenodd" d="M45.9158 28.9076H46.2464C46.4642 28.9076 46.6593 28.8779 46.6593 28.6225C46.6593 28.3962 46.4433 28.3607 46.2495 28.3607H45.9158V28.9076ZM45.5404 28.0897H46.2894C46.7698 28.0897 47.0335 28.2485 47.0335 28.6511C47.0335 28.9769 46.8354 29.1352 46.5066 29.1637L47.0452 29.9979H46.6636L46.1435 29.1765H45.9159V29.9979H45.5404V28.0897ZM47.5688 29.0503C47.5688 28.2637 46.9676 27.693 46.2253 27.693C45.4819 27.693 44.8825 28.2637 44.8825 29.0503C44.8825 29.8403 45.4819 30.4104 46.2253 30.4104C46.9676 30.4104 47.5688 29.8403 47.5688 29.0503ZM44.4482 29.0496C44.4482 28.1228 45.2457 27.3677 46.2253 27.3677C47.2044 27.3677 48 28.1228 48 29.0496C48 29.9798 47.2044 30.7355 46.2253 30.7355C45.2457 30.7355 44.4482 29.9798 44.4482 29.0496Z" fill="white"/>
<path fill-rule="evenodd" clip-rule="evenodd" d="M9.20575 12.5552C6.55021 12.5552 4.30076 14.1923 3.51189 16.4588C3.49287 16.5089 3.4757 16.5618 3.45975 16.6118L3.32909 17.0994L0 30.7738H8.38682C10.8927 30.7738 13.0262 29.2688 13.8378 27.1587L14.1543 25.8561L17.3926 12.5552H9.20575Z" fill="#034EA2"/>
<path fill-rule="evenodd" clip-rule="evenodd" d="M25.0262 8C22.2835 8 19.9709 9.74763 19.2575 12.1317C19.2035 12.3103 19.1599 12.4918 19.1256 12.6768L13.6102 35.3314H21.7971C24.6017 35.3314 26.956 33.5029 27.6105 31.0345V31.0357H27.6142L33.2216 8H25.0262Z" fill="#F37021"/>
<path fill-rule="evenodd" clip-rule="evenodd" d="M38.642 12.5552C36.0803 12.5552 33.8952 14.0788 33.0364 16.2232C32.9929 16.332 32.8401 16.7852 32.8401 16.7852L29.4356 30.7738H37.6237C40.4375 30.7738 42.7967 28.9366 43.4439 26.4571L43.4433 26.4583H43.4439L46.827 12.5552H38.642Z" fill="#51B848"/>
<path d="M4.10128 41.7037V43.7991H6.48204V44.7141H4.10128V47.8917H3.00018V40.7691H6.7102V41.7037H4.10128Z" fill="white"/>
<path d="M12.4863 42.8842C12.4863 43.5401 12.2483 44.0647 11.7721 44.4583C11.2761 44.8715 10.585 45.0781 9.69886 45.0781C9.43433 45.0781 9.18303 45.0584 8.94495 45.019V47.8917H7.84385V41.0347C8.38613 40.7855 9.04746 40.6608 9.82782 40.6608C10.6743 40.6608 11.3323 40.8609 11.8019 41.261C12.2582 41.6545 12.4863 42.1956 12.4863 42.8842ZM11.3852 42.8744C11.3852 41.9693 10.8694 41.5167 9.83774 41.5167C9.49385 41.5167 9.19625 41.5659 8.94495 41.6643V44.1631C9.13012 44.1959 9.3682 44.2123 9.65918 44.2123C10.2147 44.2123 10.6412 44.091 10.9388 43.8483C11.2364 43.6188 11.3852 43.2941 11.3852 42.8744Z" fill="white"/>
<path d="M15.9399 41.7037V47.8917H14.819V41.7037H13.1624V40.7691H17.5866V41.7037H15.9399Z" fill="white"/>
<path d="M25.0615 47.8917L24.0497 45.6388C23.8182 45.1272 23.4512 44.8715 22.9486 44.8715H22.3137V47.8917H21.2126V41.0445C21.7946 40.7887 22.4757 40.6608 23.2561 40.6608C24.1026 40.6608 24.754 40.8478 25.2103 41.2216C25.6534 41.5889 25.8749 42.0939 25.8749 42.7366C25.8749 43.7139 25.3624 44.314 24.3374 44.537V44.5566C24.668 44.7272 24.9491 45.0617 25.1805 45.5601L26.2519 47.8917H25.0615ZM24.7738 42.7858C24.7738 41.9398 24.2745 41.5167 23.2759 41.5167C22.8857 41.5167 22.565 41.5659 22.3137 41.6643V44.0647H23.1569C24.2348 44.0647 24.7738 43.6384 24.7738 42.7858Z" fill="white"/>
<path d="M31.4379 44.8124C31.4379 44.9895 31.4346 45.124 31.428 45.2158L27.8767 45.7077C27.9891 46.6652 28.5347 47.144 29.5135 47.144C30.0954 47.144 30.5881 47.0358 30.9915 46.8194L31.309 47.6261C30.8262 47.8753 30.2046 47.9999 29.444 47.9999C28.6108 47.9999 27.9627 47.7507 27.4998 47.2522C27.0434 46.7669 26.8153 46.0946 26.8153 45.2355C26.8153 44.4156 27.0302 43.7532 27.4601 43.2482C27.8966 42.7366 28.4851 42.4808 29.2258 42.4808C29.9136 42.4808 30.4559 42.6907 30.8527 43.1105C31.2428 43.5302 31.4379 44.0975 31.4379 44.8124ZM30.3964 44.6452C30.3897 43.727 29.9929 43.2679 29.206 43.2679C28.7827 43.2679 28.4488 43.4187 28.2041 43.7204C27.9462 44.0287 27.8139 44.455 27.8073 44.9993L30.3964 44.6452Z" fill="white"/>
<path d="M35.0064 47.8425C34.8345 47.9212 34.6096 47.9606 34.3319 47.9606C33.3531 47.9606 32.8638 47.4424 32.8638 46.4062V43.3958H32.1396V42.5891H32.8638V41.3593L33.9252 41.0347V42.5891H35.0064V43.3958H33.9252V46.3471C33.9252 46.7931 34.1633 47.0161 34.6394 47.0161C34.7783 47.0161 34.9006 46.9932 35.0064 46.9473V47.8425Z" fill="white"/>
<path d="M40.0686 47.6261C39.599 47.8753 38.9576 47.9999 38.1441 47.9999C36.6032 47.9999 35.8328 47.4457 35.8328 46.3373C35.8328 45.6683 36.1635 45.1895 36.8248 44.901C37.3076 44.6911 38.0449 44.5599 39.0369 44.5075V44.173C39.0369 43.5696 38.66 43.2679 37.9061 43.2679C37.3836 43.2679 36.8909 43.3761 36.428 43.5925L36.1502 42.8547C36.719 42.6055 37.3406 42.4808 38.0152 42.4808C39.3841 42.4808 40.0686 43.081 40.0686 44.2812V47.6261ZM39.0369 45.2256C38.3227 45.265 37.8234 45.3371 37.539 45.4421C37.0827 45.606 36.8545 45.8979 36.8545 46.3176C36.8545 46.921 37.2745 47.2227 38.1144 47.2227C38.531 47.2227 38.8385 47.1768 39.0369 47.085V45.2256Z" fill="white"/>
<path d="M42.6195 41.015C42.6195 41.1855 42.5567 41.3298 42.431 41.4479C42.3054 41.5659 42.1533 41.625 41.9747 41.625C41.7962 41.625 41.6441 41.5659 41.5184 41.4479C41.3928 41.3298 41.3299 41.1855 41.3299 41.015C41.3299 40.8445 41.3928 40.7002 41.5184 40.5821C41.6441 40.4641 41.7962 40.4051 41.9747 40.4051C42.1533 40.4051 42.3054 40.4641 42.431 40.5821C42.5567 40.7002 42.6195 40.8445 42.6195 41.015ZM41.4291 47.8917V42.5891H42.5203V47.8917H41.4291Z" fill="white"/>
<path d="M43.9091 47.8917V40.1689H45.0003V47.8917H43.9091Z" fill="white"/>
<path d="M63.1105 22.7974L59.3677 16.8292L59.3352 16.8422L59.4066 22.7974H57V12.9843H59.1666L62.9678 19.1531L62.9937 19.1272L62.8835 12.9843H65.29V22.7974H63.1105Z" fill="white"/>
<path d="M72.8081 22.7974V18.8747H69.5907V22.7974H67.0804V12.9843H69.5907V16.6739H72.8081V12.9843H75.3185V22.7974H72.8081Z" fill="white"/>
<path d="M83.4334 22.7974L82.9533 21.3798H79.5413L79.0224 22.7974H76.3239L80.2678 12.9843H82.2463L86.1578 22.7974H83.4334ZM81.2798 16.0395H81.2409L80.2289 19.3926H82.2917L81.2798 16.0395ZM82.3176 12.5117L79.0354 11.0812L79.71 9.52764L82.9274 11.2236L82.3176 12.5117Z" fill="white"/>
<path d="M94.9538 15.1851V22.7974H92.4434V15.1851H90.5039V12.9843H96.8803V15.1851H94.9538Z" fill="white"/>
<path d="M103.62 22.7974V18.8747H100.403V22.7974H97.8922V12.9843H100.403V16.6739H103.62V12.9843H106.13V22.7974H103.62Z" fill="white"/>
<path d="M115.426 18.9136C115.426 19.5825 115.37 20.124 115.257 20.5383C115.106 21.0691 114.836 21.5308 114.446 21.9235C113.75 22.6313 112.833 22.9851 111.696 22.9851C111.142 22.9851 110.632 22.9053 110.165 22.7456C109.638 22.5644 109.205 22.2947 108.868 21.9365C108.453 21.5006 108.176 21.0346 108.037 20.5383C107.977 20.3139 107.934 20.0615 107.908 19.781C107.89 19.5566 107.882 19.2674 107.882 18.9136V12.9843H110.392V18.9136C110.392 19.1725 110.405 19.3947 110.431 19.5803C110.466 19.8176 110.524 20.0183 110.606 20.1823C110.805 20.5836 111.16 20.7843 111.67 20.7843C112.198 20.7843 112.552 20.5879 112.734 20.1952C112.807 20.0356 112.859 19.8371 112.89 19.5997C112.907 19.4271 112.915 19.1984 112.915 18.9136V12.9843H115.426V18.9136Z" fill="white"/>
<path d="M127.128 17.8908C127.128 19.3322 126.622 20.5448 125.61 21.5287C124.602 22.4996 123.374 22.9851 121.926 22.9851C120.516 22.9851 119.307 22.5083 118.299 21.5546C117.27 20.5879 116.756 19.4077 116.756 18.0138C116.756 17.2716 116.883 16.5725 117.138 15.9165C117.272 15.567 117.486 15.2002 117.781 14.8161C118.801 13.474 120.187 12.803 121.938 12.803C123.383 12.803 124.607 13.2906 125.61 14.2659C126.622 15.2455 127.128 16.4538 127.128 17.8908ZM124.618 17.9038C124.618 17.1141 124.375 16.4409 123.891 15.8842C123.376 15.2973 122.73 15.0038 121.951 15.0038C121.164 15.0038 120.516 15.2887 120.005 15.8583C119.512 16.4063 119.266 17.0752 119.266 17.8649C119.266 18.6719 119.515 19.3537 120.012 19.9104C120.527 20.493 121.182 20.7843 121.977 20.7843C122.743 20.7843 123.381 20.4908 123.891 19.9039C124.375 19.3473 124.618 18.6805 124.618 17.9038ZM124.254 11.01L123.632 9.70889L126.817 8L127.524 9.56648L124.254 11.01ZM122.561 12.1233L121.951 11.3595L121.342 12.1233H119.188L121.257 9.9225H122.691L124.689 12.1233H122.561Z" fill="white"/>
<path d="M138.233 19.1272C137.948 20.2794 137.344 21.2115 136.423 21.9235C135.511 22.6313 134.458 22.9851 133.264 22.9851C131.829 22.9851 130.607 22.4932 129.599 21.5093C128.587 20.521 128.081 19.3106 128.081 17.8779C128.081 16.4495 128.583 15.2433 129.586 14.2594C130.585 13.2885 131.803 12.803 133.238 12.803C135.107 12.803 136.549 13.5711 137.565 15.1074C137.92 15.6382 138.142 16.1733 138.233 16.7127H135.6C135.163 15.5735 134.371 15.0038 133.225 15.0038C132.451 15.0038 131.813 15.2908 131.312 15.8648C130.832 16.4171 130.592 17.0839 130.592 17.8649C130.592 18.6547 130.832 19.33 131.312 19.891C131.818 20.4865 132.46 20.7843 133.238 20.7843C134.311 20.7843 135.098 20.2319 135.6 19.1272H138.233Z" fill="white"/>
<path d="M57 47.6909V32.5903H60.8629V44.3042H65.3448V47.6909H57Z" fill="white"/>
<path d="M82.1641 40.1406C82.1641 42.3585 81.3855 44.2245 79.8283 45.7386C78.2778 47.2327 76.3879 47.9797 74.1587 47.9797C71.9893 47.9797 70.1294 47.2459 68.5789 45.7784C66.9951 44.2909 66.2032 42.4747 66.2032 40.3299C66.2032 39.1877 66.3995 38.1119 66.7921 37.1026C66.9984 36.5647 67.3278 36.0002 67.7803 35.4092C69.3508 33.344 71.4836 32.3114 74.1786 32.3114C76.4013 32.3114 78.2845 33.0618 79.8283 34.5626C81.3855 36.07 82.1641 37.9293 82.1641 40.1406ZM78.3011 40.1605C78.3011 38.9453 77.9285 37.9094 77.1832 37.0528C76.3913 36.1497 75.3964 35.6981 74.1986 35.6981C72.9875 35.6981 71.9893 36.1364 71.2041 37.0129C70.4455 37.8563 70.0661 38.8855 70.0661 40.1008C70.0661 41.3425 70.4488 42.3917 71.2141 43.2484C72.0059 44.1448 73.0141 44.5931 74.2385 44.5931C75.4164 44.5931 76.3979 44.1415 77.1832 43.2384C77.9285 42.3818 78.3011 41.3558 78.3011 40.1605Z" fill="white"/>
<path d="M93.6531 47.6909L87.8936 38.507L87.8437 38.527L87.9535 47.6909H84.2503V32.5903H87.5842L93.4335 42.083L93.4734 42.0431L93.3037 32.5903H97.007V47.6909H93.6531Z" fill="white"/>
<path d="M115.214 39.9015C115.214 42.2191 114.448 44.1481 112.918 45.6887C111.381 47.2293 109.454 47.9996 107.138 47.9996C104.903 47.9996 103.006 47.2393 101.449 45.7186C99.8851 44.1847 99.1031 42.3054 99.1031 40.0808C99.1031 37.8496 99.8984 35.987 101.489 34.4929C103.046 33.0386 104.949 32.3114 107.198 32.3114C108.875 32.3114 110.429 32.7995 111.86 33.7757C113.344 34.785 114.312 36.0766 114.765 37.6504H110.432C109.7 36.3489 108.589 35.6981 107.099 35.6981C105.887 35.6981 104.889 36.1297 104.104 36.993C103.345 37.8297 102.966 38.859 102.966 40.0808C102.966 41.3558 103.335 42.4183 104.074 43.2683C104.853 44.1648 105.867 44.613 107.119 44.613C107.99 44.613 108.742 44.4171 109.374 44.0253C110.053 43.6003 110.506 42.9861 110.732 42.1826H106.22V39.1047H115.194C115.2 39.2242 115.207 39.357 115.214 39.5031V39.9015Z" fill="white"/>
<path d="M138.521 42.0431C138.082 43.8161 137.154 45.2505 135.736 46.3462C134.332 47.4352 132.712 47.9797 130.875 47.9797C128.666 47.9797 126.786 47.2227 125.235 45.7087C123.678 44.188 122.9 42.3253 122.9 40.1207C122.9 37.9227 123.672 36.0667 125.215 34.5526C126.753 33.0585 128.626 32.3114 130.835 32.3114C133.71 32.3114 135.929 33.4935 137.493 35.8575C138.039 36.6743 138.381 37.4977 138.521 38.3277H134.469C133.796 36.5747 132.579 35.6981 130.815 35.6981C129.624 35.6981 128.643 36.1397 127.871 37.0229C127.132 37.8729 126.763 38.8988 126.763 40.1008C126.763 41.316 127.132 42.3552 127.871 43.2185C128.649 44.1349 129.637 44.5931 130.835 44.5931C132.486 44.5931 133.697 43.7431 134.469 42.0431H138.521Z" fill="white"/>
<path d="M149.341 47.6909V41.6546H144.39V47.6909H140.528V32.5903H144.39V38.268H149.341V32.5903H153.204V47.6909H149.341Z" fill="white"/>
<path d="M165.692 47.6909L164.953 45.5095H159.703L158.904 47.6909H154.752L160.82 32.5903H163.865L169.884 47.6909H165.692ZM162.378 37.2918H162.318L160.761 42.4515H163.935L162.378 37.2918ZM163.276 31.2656L162.338 30.0902L161.399 31.2656H158.085L161.27 27.8789H163.476L166.55 31.2656H163.276Z" fill="white"/>
<path d="M183 41.7144C183 42.7437 182.913 43.5771 182.74 44.2146C182.508 45.0313 182.092 45.7419 181.493 46.3462C180.421 47.4352 179.011 47.9797 177.26 47.9797C176.409 47.9797 175.623 47.8569 174.905 47.6112C174.093 47.3323 173.427 46.9172 172.908 46.3661C172.27 45.6954 171.844 44.9782 171.631 44.2146C171.538 43.8692 171.471 43.4808 171.431 43.0491C171.404 42.7038 171.391 42.2589 171.391 41.7144V32.5903H175.254V41.7144C175.254 42.1128 175.274 42.4548 175.314 42.7404C175.367 43.1056 175.457 43.4144 175.584 43.6667C175.89 44.2843 176.435 44.5931 177.221 44.5931C178.032 44.5931 178.578 44.2909 178.858 43.6866C178.971 43.4409 179.051 43.1355 179.097 42.7702C179.124 42.5046 179.137 42.1527 179.137 41.7144V32.5903H183V41.7144Z" fill="white"/>
</svg>
